<svg width="0" height="0" class="sprite">
    <symbol id="dots" viewBox="0 0 3 12" xmlns="http://www.w3.org/2000/svg">
        <circle cx="1.5" cy="1.5" r="1.5" />
        <circle cx="1.5" cy="6" r="1.5" />
        <circle cx="1.5" cy="10.5" r="1.5" />
    </symbol>
    <symbol id="close" viewBox="0 0 11 11" xmlns="http://www.w3.org/2000/svg">
        <line x1="3.02512" y1="3.02513" x2="7.97487" y2="7.97488"/>
        <line x1="7.97489" y1="3.02513" x2="3.02514" y2="7.97487"/>
    </symbol>
    <symbol id="copy" viewBox="0 0 10 12" xmlns="http://www.w3.org/2000/svg">
        <path d="M6.72271 2.09871H1.14417C0.62072 2.09871 0.195572 2.52386 0.195572 3.04731V11.0514C0.195572 11.5749 0.62072 12 1.14417 12H6.72271C7.24616 12 7.67131 11.5749 7.67131 11.0514V3.04731C7.66885 2.52386 7.2437 2.09871 6.72271 2.09871ZM7.00532 11.0489C7.00532 11.2062 6.87753 11.334 6.72025 11.334H1.14171C0.984431 11.334 0.856641 11.2062 0.856641 11.0489V3.04731C0.856641 2.89003 0.984431 2.76224 1.14171 2.76224H6.72025C6.87753 2.76224 7.00532 2.89003 7.00532 3.04731V11.0489Z"/>
        <path d="M8.85582 0H3.27729C2.75384 0 2.32869 0.425148 2.32869 0.948597C2.32869 1.13291 2.47614 1.28036 2.66045 1.28036C2.84477 1.28036 2.99222 1.13291 2.99222 0.948597C2.99222 0.791317 3.12001 0.663526 3.27729 0.663526H8.85582C9.0131 0.663526 9.1409 0.791317 9.1409 0.948597V8.95269C9.1409 9.10997 9.0131 9.23776 8.85582 9.23776C8.67151 9.23776 8.52406 9.38521 8.52406 9.56953C8.52406 9.75384 8.67151 9.90129 8.85582 9.90129C9.37927 9.90129 9.80442 9.47614 9.80442 8.95269V0.948597C9.80442 0.425148 9.37927 0 8.85582 0Z"/>
    </symbol>
    <symbol id="edit" viewBox="0 0 12 12" xmlns="http://www.w3.org/2000/svg">
        <path d="M11.6266 1.46025L10.5392 0.372754C10.0423 -0.124096 9.23395 -0.124073 8.7371 0.372754C8.26931 0.840589 1.12425 7.98618 0.646754 8.46369C0.595895 8.51455 0.561816 8.58214 0.549676 8.64826L0.00597237 11.5845C-0.015098 11.6983 0.0211833 11.8153 0.103051 11.8971C0.185012 11.9791 0.301965 12.0153 0.41566 11.9942L3.35165 11.4505C3.41951 11.4378 3.48621 11.4034 3.53622 11.3534L11.6266 3.26243C12.1246 2.76443 12.1246 1.95832 11.6266 1.46025ZM0.790426 11.2097L1.11932 9.43351L2.5665 10.8808L0.790426 11.2097ZM3.28765 10.6076L1.39251 8.71232L8.3115 1.79281L10.2066 3.68808L3.28765 10.6076ZM11.1294 2.76525L10.7038 3.1909L8.80866 1.29563L9.23426 0.86998C9.45694 0.647277 9.81926 0.647254 10.042 0.86998L11.1294 1.95748C11.3526 2.18072 11.3526 2.54198 11.1294 2.76525Z" />
    </symbol>
    <symbol id="delete" viewBox="0 0 10 12" xmlns="http://www.w3.org/2000/svg">
        <path d="M6.65522 4.34762C6.5 4.34762 6.37419 4.47342 6.37419 4.62865V9.94011C6.37419 10.0952 6.5 10.2211 6.65522 10.2211C6.81045 10.2211 6.93625 10.0952 6.93625 9.94011V4.62865C6.93625 4.47342 6.81045 4.34762 6.65522 4.34762Z"/>
        <path d="M3.33908 4.34762C3.18385 4.34762 3.05804 4.47342 3.05804 4.62865V9.94011C3.05804 10.0952 3.18385 10.2211 3.33908 10.2211C3.4943 10.2211 3.62011 10.0952 3.62011 9.94011V4.62865C3.62011 4.47342 3.4943 4.34762 3.33908 4.34762Z"/>
        <path d="M0.922223 3.57248V10.4965C0.922223 10.9057 1.07229 11.29 1.33444 11.5658C1.59538 11.8423 1.95852 11.9993 2.33857 12H7.65573C8.03589 11.9993 8.39903 11.8423 8.65986 11.5658C8.92201 11.29 9.07207 10.9057 9.07207 10.4965V3.57248C9.59318 3.43416 9.93086 2.93072 9.86115 2.396C9.79133 1.86139 9.33587 1.46147 8.79664 1.46136H7.35779V1.11007C7.35944 0.814661 7.24264 0.530997 7.03351 0.322311C6.82439 0.113734 6.54028 -0.00241012 6.24487 4.97687e-06H3.74942C3.45401 -0.00241012 3.16991 0.113734 2.96078 0.322311C2.75166 0.530997 2.63486 0.814661 2.6365 1.11007V1.46136H1.19765C0.658429 1.46147 0.202964 1.86139 0.133145 2.396C0.063437 2.93072 0.401111 3.43416 0.922223 3.57248ZM7.65573 11.4379H2.33857C1.85807 11.4379 1.48428 11.0251 1.48428 10.4965V3.59718H8.51001V10.4965C8.51001 11.0251 8.13622 11.4379 7.65573 11.4379ZM3.19856 1.11007C3.19669 0.963738 3.25422 0.822894 3.35807 0.719594C3.46181 0.616294 3.60298 0.559539 3.74942 0.562064H6.24487C6.39132 0.559539 6.53249 0.616294 6.63623 0.719594C6.74008 0.822784 6.7976 0.963738 6.79573 1.11007V1.46136H3.19856V1.11007ZM1.19765 2.02342H8.79664C9.07603 2.02342 9.3025 2.24989 9.3025 2.52927C9.3025 2.80865 9.07603 3.03512 8.79664 3.03512H1.19765C0.918271 3.03512 0.691801 2.80865 0.691801 2.52927C0.691801 2.24989 0.918271 2.02342 1.19765 2.02342Z"/>
        <path d="M4.99714 4.34762C4.84192 4.34762 4.71611 4.47342 4.71611 4.62865V9.94011C4.71611 10.0952 4.84192 10.2211 4.99714 10.2211C5.15237 10.2211 5.27817 10.0952 5.27817 9.94011V4.62865C5.27817 4.47342 5.15237 4.34762 4.99714 4.34762Z"/>
    </symbol>
</svg>